<?xml version="1.0" encoding="utf-8"?>
<!-- Generator: Adobe Illustrator 16.0.2, SVG Export Plug-In . SVG Version: 6.00 Build 0)  -->
<!DOCTYPE svg PUBLIC "-//W3C//DTD SVG 1.1//EN" "http://www.w3.org/Graphics/SVG/1.1/DTD/svg11.dtd">
<svg version="1.1" id="Layer_1" xmlns="http://www.w3.org/2000/svg" xmlns:xlink="http://www.w3.org/1999/xlink" x="0px" y="0px"
	 width="250px" height="250px" viewBox="181.106 116.909 250 250" enable-background="new 181.106 116.909 250 250"
	 xml:space="preserve">
<g>
	<g>
		<path fill="#E10B1C" stroke="#E10B1C" stroke-width="2" stroke-miterlimit="10" d="M306.433,358.818
			c-31.385,0-60.771-11.983-82.745-33.744c-21.232-21.026-33.521-48.779-34.598-78.146c-1.201-32.512,10.344-63.081,32.504-86.075
			c21.959-22.784,52.393-35.852,83.499-35.852l1.564,0.002c30.967,0,60.173,12.172,82.232,34.273
			c22.185,22.221,34.369,51.65,34.314,82.867c-0.088,30.45-11.877,59.306-33.196,81.252c-21.295,21.918-49.681,34.479-79.929,35.369
			C308.862,358.802,307.639,358.818,306.433,358.818z M292.631,182.797c-7.623,0-15.095,0.023-22.209,0.07
			c-15.061,0.104-28.001,12.719-28.259,27.547c-0.187,10.549-0.157,21.289-0.129,31.675v0.117c0.024,9.358,0.05,19.038-0.082,28.577
			c-0.112,8.111,2.885,15.681,8.438,21.313c5.784,5.864,13.719,9.096,22.344,9.096l0.26-0.002
			c10.179-0.109,21.175-0.162,34.592-0.162c8.012,0,16.022,0.02,24.034,0.037l1.136,0.002c8.385,0.021,16.769,0.039,25.147,0.039
			h0.896c0.188,0,2.022,0.019,2.022,0.019c0.548,0,1.254-0.013,1.854-0.099c2.74-0.332,4.958-1.629,6.286-3.654
			c1.256-1.918,1.563-4.27,0.86-6.619c-1.015-3.525-4.033-5.5-8.515-5.58c-2.866-0.044-5.75-0.057-8.635-0.057
			c-2.283,0-4.566,0.008-6.857,0.017c-2.327,0.009-4.646,0.019-6.969,0.019h-0.12c-6.442-0.002-12.895-0.018-19.349-0.032
			c-6.638-0.017-13.28-0.033-19.921-0.033c-10.235,0-18.642,0.039-26.458,0.124l-0.234,0.002c-4.73,0-8.709-1.598-11.517-4.622
			c-2.69-2.897-3.996-6.875-3.677-11.2c0.152-2.181,0.113-4.521,0.076-6.783c-0.02-1.215-0.039-2.418-0.033-3.616
			c0.009-6.739,1.341-9.134,8.81-9.134l51.175,0.002v0.041l20.724,0.008c5.768,0,11.535-0.004,17.304-0.018l1.138-0.003
			c2.628-0.002,5.334-0.005,7.627-0.532c2.67-0.631,4.729-2.565,5.495-5.168c0.812-2.754,0.066-5.674-1.987-7.81
			c-1.699-1.733-3.913-2.446-7.634-2.446c-15.23,0.016-30.417,0.021-45.599,0.021l-45.582-0.005c-0.487,0-0.976-0.012-1.463-0.022
			c-0.427-0.01-0.849-0.021-1.271-0.021c-0.342,0-0.683,0.008-1.021,0.029c-0.252,0.015-0.444,0.019-0.629,0.019
			c-2.125,0-3.914-0.679-5.174-1.959c-1.313-1.337-1.957-3.191-1.914-5.509c0.023-1.854,0.01-3.729-0.006-5.601
			c-0.022-3.044-0.047-6.111,0.08-9.178c0.278-6.665,4.64-11.597,11.383-12.871c1.865-0.352,3.643-0.384,5.604-0.387
			c4.177-0.007,8.356-0.009,12.536-0.009l10.051,0.001c7.141,0,14.273-0.005,21.395-0.034c1.476-0.001,3.338-0.067,4.699-0.577
			c3.244-1.221,5.479-5.042,4.879-8.345c-0.723-3.917-3.966-6.567-8.068-6.592C310.266,182.826,301.259,182.797,292.631,182.797z"/>
		<path fill="#E10B1C" stroke="#E10B1C" stroke-width="2" stroke-miterlimit="10" d="M305.08,125.652l1.581,0.002
			c30.792,0,59.833,12.104,81.771,34.083c22.062,22.1,34.18,51.365,34.126,82.406c-0.088,30.279-11.812,58.974-33.016,80.799
			c-21.178,21.797-49.398,34.289-79.476,35.175c-1.211,0.034-2.431,0.051-3.632,0.051c-31.216,0-60.442-11.915-82.291-33.554
			c-21.117-20.91-33.336-48.504-34.408-77.698c-1.194-32.34,10.285-62.745,32.321-85.609
			C243.895,138.649,274.155,125.652,305.08,125.652 M272.342,303.91l0.27-0.002c10.313-0.11,21.434-0.162,34.99-0.162
			c8.487,0,16.974,0.021,25.462,0.039c8.483,0.021,16.967,0.039,25.448,0.039h0.904c0.365,0,1.716,0.018,2.047,0.018
			c0.618,0,1.425-0.014,2.16-0.116c3.348-0.407,6.092-2.037,7.767-4.596c1.604-2.447,2.003-5.425,1.118-8.383
			c-1.267-4.417-5.099-6.993-10.517-7.09c-2.917-0.045-5.841-0.058-8.772-0.058c-2.317,0-4.638,0.008-6.961,0.017
			c-2.338,0.009-4.68,0.017-7.027,0.017h-0.122c-6.516,0-13.042-0.017-19.57-0.032c-6.717-0.018-13.439-0.033-20.16-0.033
			c-10.36,0-18.873,0.04-26.791,0.126l-0.229,0.001c-4.195,0-7.708-1.393-10.157-4.028c-2.335-2.515-3.464-5.998-3.182-9.808
			c0.16-2.304,0.12-4.718,0.081-7.052c-0.02-1.206-0.04-2.41-0.034-3.609c0.008-5.949,0.602-7.229,6.89-7.229l49.753,0.005v0.04
			l22.988,0.009c5.838,0,11.675-0.005,17.514-0.019l1.15-0.002c2.762-0.002,5.623-0.004,8.165-0.59
			c3.426-0.81,6.064-3.289,7.047-6.63c1.03-3.492,0.098-7.184-2.495-9.874c-2.121-2.167-4.87-3.096-9.179-3.096
			c-15.411,0.016-30.776,0.02-46.135,0.02l-46.117-0.006c-0.479,0-0.958-0.01-1.434-0.021c-0.445-0.01-0.889-0.021-1.331-0.021
			c-0.39,0-0.778,0.008-1.164,0.034c-0.193,0.01-0.354,0.014-0.506,0.014c-1.618,0-2.893-0.464-3.79-1.377
			c-0.947-0.964-1.39-2.312-1.357-4.119c0.024-1.925,0.009-3.857-0.006-5.787c-0.023-2.98-0.047-6.062,0.079-9.12
			c0.245-5.84,3.934-9.996,9.871-11.117c1.717-0.324,3.415-0.353,5.3-0.357c4.225-0.007,8.452-0.009,12.679-0.009l10.168,0.001
			c7.227,0,14.447-0.005,21.653-0.035c1.66-0.001,3.772-0.083,5.457-0.712c4.214-1.585,7.006-6.387,6.22-10.701
			c-0.911-4.951-4.988-8.298-10.145-8.33c-10.009-0.06-19.125-0.089-27.868-0.089c-7.754,0-15.319,0.024-22.484,0.07
			c-16.307,0.112-30.32,13.786-30.602,29.859c-0.189,10.695-0.16,21.574-0.131,32.096c0.024,9.497,0.051,19.318-0.083,28.99
			c-0.122,8.752,3.119,16.926,9.122,23.011C254.531,300.43,263.07,303.91,272.342,303.91 M305.085,121.605h-0.003h-0.002
			c-32.017,0-63.34,13.447-85.936,36.891c-22.806,23.664-34.685,55.118-33.451,88.566c1.109,30.226,13.753,58.789,35.603,80.426
			c22.612,22.394,52.85,34.725,85.14,34.725c1.264,0,2.525-0.019,3.749-0.053c31.134-0.917,60.349-13.845,82.263-36.401
			c21.937-22.582,34.067-52.274,34.158-83.607c0.056-32.127-12.483-62.411-35.309-85.276c-22.703-22.745-52.76-35.27-84.635-35.27
			H305.085L305.085,121.605z M272.34,299.864c-8.179-0.002-15.694-3.058-21.164-8.6c-5.234-5.31-8.06-12.453-7.954-20.115
			c0.133-9.666,0.108-19.463,0.083-28.938v-0.118c-0.028-10.502-0.058-21.359,0.131-32.012c0.242-13.933,12.414-25.786,26.58-25.883
			c7.197-0.049,14.752-0.072,22.457-0.072c8.725,0,17.833,0.029,27.845,0.089c3.201,0.019,5.628,1.988,6.186,5.015
			c0.437,2.392-1.275,5.283-3.66,6.181c-1.206,0.451-3.264,0.452-4.034,0.452c-7.396,0.03-14.776,0.034-21.651,0.034l-10.167-0.001
			c-4.229,0-8.458,0.001-12.687,0.009c-2.012,0.004-3.987,0.04-6.043,0.427c-7.798,1.473-12.841,7.191-13.163,14.926
			c-0.131,3.153-0.106,6.283-0.083,9.309v0.077c0.015,1.856,0.03,3.776,0.007,5.638c-0.054,2.885,0.792,5.25,2.515,7.005
			c1.161,1.182,3.261,2.588,6.679,2.588c0.22,0,0.449-0.004,0.724-0.02c0.303-0.02,0.598-0.028,0.945-0.028
			c0.41,0,0.821,0.011,1.234,0.021c0.514,0.011,1.022,0.022,1.532,0.022l46.117,0.005c15.359,0,30.725-0.005,46.141-0.021
			c3.9,0,5.326,0.903,6.281,1.88c1.57,1.629,2.128,3.79,1.505,5.901c-0.574,1.955-2.069,3.352-4.098,3.833
			c-2.071,0.477-4.693,0.479-7.228,0.481l-1.163,0.002c-5.837,0.014-11.67,0.018-17.505,0.018l-18.941-0.006l0,0l-4.046-0.041
			l-49.752-0.002c-9.234,0-10.929,3.794-10.939,11.269c-0.005,1.23,0.015,2.475,0.035,3.679c0.038,2.256,0.075,4.578-0.073,6.705
			c-0.365,4.927,1.145,9.494,4.255,12.841c3.233,3.482,7.771,5.323,13.122,5.323l0.255-0.002c7.918-0.085,16.417-0.125,26.765-0.125
			c6.72,0,13.438,0.017,20.151,0.033c6.531,0.016,13.06,0.031,19.581,0.033h0.123c2.351,0,4.699-0.01,7.043-0.019
			c2.329-0.009,4.638-0.017,6.943-0.017c3.376,0,6.145,0.018,8.711,0.058c2.514,0.045,5.723,0.803,6.688,4.159
			c0.556,1.865,0.34,3.597-0.612,5.051c-1.026,1.568-2.711,2.533-4.87,2.795l-0.041,0.006l-0.041,0.006
			c-0.482,0.066-1.105,0.076-1.591,0.076c-0.155,0-0.543-0.004-0.94-0.008c-0.451-0.006-0.913-0.01-1.108-0.01h-0.904
			c-8.462,0-16.926-0.021-25.386-0.039h-0.056l-1.142-0.002c-8.111-0.021-16.216-0.039-24.329-0.039
			c-13.582,0-24.714,0.054-35.034,0.165L272.34,299.864L272.34,299.864z"/>
	</g>
	<g>
		<path fill="#E10B1C" d="M306.433,356.818c-30.854,0-59.741-11.778-81.335-33.166c-20.871-20.668-32.949-47.941-34.008-76.797
			c-1.18-31.964,10.165-62.016,31.945-84.614c21.583-22.396,51.492-35.239,82.059-35.239l1.563,0.002
			c30.435,0,59.138,11.963,80.82,33.687c21.807,21.843,33.783,50.769,33.729,81.45c-0.086,29.928-11.674,58.289-32.631,79.861
			c-20.932,21.543-48.826,33.891-78.554,34.766C308.823,356.802,307.619,356.818,306.433,356.818z M292.631,180.797
			c-7.665,0-15.142,0.024-22.223,0.07c-16.118,0.111-29.969,13.626-30.246,29.512c-0.188,10.571-0.158,21.324-0.13,31.723
			c0.024,9.387,0.051,19.094-0.081,28.653c-0.12,8.651,3.082,16.729,9.015,22.744c6.164,6.25,14.604,9.69,23.769,9.69h0.267
			c10.192-0.111,21.187-0.164,34.586-0.164c8.387,0,16.774,0.021,25.161,0.041c8.384,0.02,16.768,0.039,25.149,0.039h0.899
			c0.36,0,1.694,0.017,2.023,0.017c0.609,0,1.406-0.013,2.135-0.116c3.308-0.4,6.021-2.013,7.677-4.541
			c1.585-2.42,1.979-5.361,1.104-8.287c-1.253-4.365-5.038-6.912-10.395-7.007c-2.885-0.044-5.774-0.057-8.671-0.057
			c-2.29,0-4.582,0.008-6.879,0.017c-2.31,0.01-4.624,0.018-6.943,0.018h-0.124c-6.44-0.002-12.892-0.018-19.344-0.032
			c-6.64-0.017-13.283-0.033-19.926-0.033c-10.24,0-18.654,0.04-26.48,0.125l-0.226,0.001c-4.147,0-7.619-1.377-10.039-3.982
			c-2.308-2.484-3.425-5.927-3.146-9.692c0.158-2.277,0.119-4.663,0.08-6.972c-0.02-1.19-0.039-2.381-0.033-3.565
			c0.008-5.88,0.595-7.144,6.808-7.144l49.178,0.002v0.041l22.727,0.008c5.77,0,11.536-0.004,17.306-0.02l1.137-0.002
			c2.731-0.002,5.558-0.004,8.071-0.583c3.386-0.801,5.994-3.251,6.966-6.553c1.017-3.452,0.095-7.101-2.468-9.761
			c-2.097-2.141-4.813-3.061-9.072-3.061c-15.239,0.016-30.433,0.021-45.618,0.021l-45.562-0.006c-0.473,0-0.946-0.01-1.417-0.021
			c-0.439-0.01-0.878-0.021-1.314-0.021c-0.385,0-0.77,0.008-1.15,0.033c-0.191,0.01-0.35,0.014-0.501,0.014
			c-1.599,0-2.858-0.458-3.746-1.361c-0.937-0.953-1.374-2.285-1.341-4.071c0.023-1.902,0.009-3.812-0.006-5.72
			c-0.023-2.945-0.047-5.991,0.078-9.014c0.242-5.772,3.889-9.88,9.756-10.988c1.697-0.32,3.375-0.349,5.238-0.353
			c4.18-0.007,8.362-0.009,12.545-0.009l10.037,0.001c7.144,0,14.278-0.005,21.4-0.034c1.641-0.001,3.729-0.082,5.394-0.704
			c4.165-1.567,6.925-6.313,6.146-10.577c-0.9-4.893-4.929-8.202-10.024-8.233C310.284,180.826,301.273,180.797,292.631,180.797z"/>
		<path d="M305.092,129.003c0.299,0,0.592,0.001,0.891,0.003c0.222-0.001,0.449-0.002,0.671-0.002
			c62.065,0,112.661,51.05,112.552,113.132c-0.174,60.857-48.921,110.855-109.242,112.632c-1.179,0.033-2.362,0.051-3.53,0.051
			c-64.118,0-111.247-50.885-113.346-108.035C190.585,179.03,244.934,129.006,305.092,129.003 M272.734,305.191
			c0.095,0,0.187,0,0.281-0.002c11.523-0.125,23.049-0.162,34.57-0.162c16.773,0,33.543,0.078,50.315,0.078c0.301,0,0.599,0,0.896,0
			c0.009,0,0.02,0,0.026,0c0.656,0,1.327,0.018,1.996,0.018c0.815,0,1.632-0.023,2.416-0.137c7.865-0.954,12.608-8.03,10.416-15.381
			c-1.472-5.121-5.946-8.321-12.272-8.435c-2.898-0.044-5.803-0.058-8.708-0.058c-4.595,0-9.198,0.033-13.826,0.033
			c-0.04,0-0.079,0-0.117,0c-13.072-0.002-26.174-0.064-39.271-0.064c-8.836,0-17.67,0.029-26.501,0.125
			c-0.067,0.001-0.138,0.001-0.205,0.001c-7.396,0-11.673-5.008-11.19-11.526c0.248-3.541,0.037-7.129,0.054-10.677
			c0.007-5.055,0.015-5.151,4.808-5.151c0.109,0,0.221,0,0.334,0c6.696,0.004,13.389,0.004,20.076,0.004
			c8.92,0,17.837-0.002,26.767-0.002c0,0.021,0,0.039-0.001,0.041c8.246,0,16.493,0.008,24.739,0.008
			c5.768,0,11.531-0.004,17.297-0.019c3.22-0.015,6.555,0.076,9.651-0.637c8.938-2.114,11.874-13.019,5.49-19.649
			c-2.933-2.994-6.581-3.673-10.515-3.673c-0.012,0-0.021,0-0.032,0c-15.218,0.016-30.418,0.021-45.612,0.021
			c-15.179,0-30.351-0.004-45.534-0.005c-0.913,0-1.827-0.042-2.732-0.042c-0.43,0-0.855,0.01-1.281,0.037
			c-0.127,0.006-0.25,0.01-0.37,0.01c-2.164,0-3.132-1.049-3.087-3.396c0.063-4.908-0.133-9.792,0.07-14.688
			c0.207-4.938,3.246-8.184,8.129-9.106c1.576-0.297,3.227-0.315,4.869-0.318c4.172-0.007,8.348-0.009,12.521-0.009
			c3.359,0,6.718,0.001,10.076,0.001c7.14,0,14.272-0.005,21.391-0.034c2.081-0.001,4.251-0.144,6.086-0.83
			c5.188-1.951,8.342-7.715,7.412-12.81c-1.063-5.779-5.843-9.837-11.979-9.874c-9.195-0.055-18.379-0.088-27.559-0.088
			c-7.415,0-14.826,0.021-22.236,0.07c-17.22,0.119-31.934,14.253-32.232,31.478c-0.355,20.134,0.066,40.248-0.211,60.383
			C237.682,290.23,253.188,305.191,272.734,305.191 M313.601,253.855h0.007 M305.105,125.003h-0.015
			c-31.108,0.001-61.543,13.07-83.501,35.855c-22.158,22.993-33.701,53.561-32.5,86.072c0.537,14.631,3.875,28.922,9.924,42.475
			c5.961,13.356,14.262,25.359,24.674,35.67c21.974,21.761,51.359,33.744,82.745,33.744c1.207,0,2.437-0.02,3.646-0.053
			c30.251-0.892,58.637-13.451,79.931-35.371c21.319-21.945,33.109-50.802,33.196-81.248c0.055-31.221-12.132-60.648-34.313-82.871
			c-22.063-22.102-51.27-34.273-82.236-34.273l-0.659,0.002C305.695,125.004,305.404,125.003,305.105,125.003L305.105,125.003z
			 M272.734,301.191c-8.625,0-16.56-3.23-22.344-9.096c-5.555-5.634-8.552-13.203-8.439-21.313
			c0.133-9.577,0.105-19.292,0.082-28.687c-0.028-10.39-0.057-21.132,0.13-31.682c0.257-14.829,13.198-27.444,28.26-27.548
			c7.077-0.046,14.55-0.07,22.209-0.07c8.636,0,17.643,0.029,27.533,0.088c4.169,0.025,7.337,2.615,8.07,6.598
			c0.602,3.296-1.638,7.119-4.889,8.342c-1.372,0.513-3.328,0.573-4.68,0.574c-7.268,0.03-14.574,0.034-21.39,0.034h-5.035h-5.04
			c-4.177,0-8.354,0.001-12.528,0.009c-1.891,0.003-3.742,0.036-5.605,0.387c-6.846,1.293-11.101,6.104-11.383,12.87
			c-0.127,3.073-0.104,6.144-0.08,9.113c0.016,1.871,0.031,3.804,0.006,5.69c-0.043,2.295,0.602,4.147,1.914,5.485
			c1.277,1.3,3.018,1.96,5.174,1.96c0.185,0,0.376-0.005,0.572-0.015l0.028-0.002l0.029-0.002c0.295-0.02,0.628-0.029,1.021-0.029
			c0.422,0,0.844,0.011,1.27,0.021c0.486,0.011,0.975,0.022,1.463,0.022l19.792,0.002l25.742,0.002
			c15.193,0,30.397-0.004,45.616-0.021c3.749,0,5.967,0.716,7.685,2.472c2.033,2.111,2.776,5.03,1.967,7.785
			c-0.775,2.643-2.789,4.528-5.52,5.174c-2.271,0.521-4.859,0.523-7.603,0.526l-1.146,0.002c-5.754,0.015-11.518,0.019-17.278,0.019
			c-4.123,0-8.245-0.002-12.367-0.004c-2.791-0.002-5.581-0.004-8.371-0.004v-0.041h-3.994H313.6l-13.391,0.002h-13.375
			c-6.688,0-13.379,0-20.074-0.004h-0.337c-2.862,0-5.333,0-7.146,1.977c-1.654,1.803-1.657,3.938-1.662,7.17
			c-0.006,1.201,0.015,2.418,0.033,3.596c0.039,2.37,0.076,4.608-0.076,6.809c-0.319,4.308,0.986,8.285,3.676,11.183
			c2.768,2.979,6.854,4.622,11.504,4.622l0.254-0.002c7.811-0.085,16.219-0.124,26.452-0.124c6.64,0,13.281,0.017,19.917,0.032
			c6.455,0.016,12.907,0.031,19.352,0.033h0.12c2.323,0,4.643-0.01,6.953-0.019c2.295-0.009,4.585-0.017,6.873-0.017
			c3.336,0,6.083,0.018,8.647,0.058c2.583,0.046,7.136,0.826,8.486,5.538c0.714,2.393,0.408,4.742-0.848,6.659
			c-1.328,2.026-3.532,3.321-6.206,3.647l-0.039,0.004l-0.039,0.006c-0.604,0.086-1.309,0.097-1.854,0.097
			c-0.319,0-0.642-0.004-0.958-0.008c-0.351-0.005-0.695-0.009-1.038-0.009H357.9c-8.385,0-16.767-0.021-25.147-0.039
			c-8.389-0.021-16.777-0.041-25.168-0.041c-13.405,0-24.405,0.053-34.612,0.164L272.734,301.191L272.734,301.191z"/>
	</g>
</g>
<g>
	<g>
		<path fill="#E10B1C" d="M306.433,356.818c-30.854,0-59.741-11.778-81.335-33.166c-20.871-20.668-32.949-47.941-34.008-76.797
			c-1.18-31.964,10.165-62.016,31.945-84.614c21.583-22.396,51.492-35.239,82.059-35.239l1.563,0.002
			c30.435,0,59.138,11.963,80.82,33.687c21.807,21.843,33.783,50.769,33.729,81.45c-0.086,29.928-11.674,58.289-32.631,79.861
			c-20.932,21.543-48.826,33.891-78.554,34.766C308.823,356.802,307.619,356.818,306.433,356.818z M292.631,180.797
			c-7.665,0-15.142,0.024-22.223,0.07c-16.118,0.111-29.969,13.626-30.246,29.512c-0.188,10.571-0.158,21.324-0.13,31.723
			c0.024,9.387,0.051,19.094-0.081,28.653c-0.12,8.651,3.082,16.729,9.015,22.744c6.164,6.25,14.604,9.69,23.769,9.69h0.267
			c10.192-0.111,21.187-0.164,34.586-0.164c8.387,0,16.774,0.021,25.161,0.041c8.384,0.02,16.768,0.039,25.149,0.039h0.899
			c0.36,0,1.694,0.017,2.023,0.017c0.609,0,1.406-0.013,2.135-0.116c3.308-0.4,6.021-2.013,7.677-4.541
			c1.585-2.42,1.979-5.361,1.104-8.287c-1.253-4.365-5.038-6.912-10.395-7.007c-2.885-0.044-5.774-0.057-8.671-0.057
			c-2.29,0-4.582,0.008-6.879,0.017c-2.31,0.01-4.624,0.018-6.943,0.018h-0.124c-6.44-0.002-12.892-0.018-19.344-0.032
			c-6.64-0.017-13.283-0.033-19.926-0.033c-10.24,0-18.654,0.04-26.48,0.125l-0.226,0.001c-4.147,0-7.619-1.377-10.039-3.982
			c-2.308-2.484-3.425-5.927-3.146-9.692c0.158-2.277,0.119-4.663,0.08-6.972c-0.02-1.19-0.039-2.381-0.033-3.565
			c0.008-5.88,0.595-7.144,6.808-7.144l49.178,0.002v0.041l22.727,0.008c5.77,0,11.536-0.004,17.306-0.02l1.137-0.002
			c2.731-0.002,5.558-0.004,8.071-0.583c3.386-0.801,5.994-3.251,6.966-6.553c1.017-3.452,0.095-7.101-2.468-9.761
			c-2.097-2.141-4.813-3.061-9.072-3.061c-15.239,0.016-30.433,0.021-45.618,0.021l-45.562-0.006c-0.473,0-0.946-0.01-1.417-0.021
			c-0.439-0.01-0.878-0.021-1.314-0.021c-0.385,0-0.77,0.008-1.15,0.033c-0.191,0.01-0.35,0.014-0.501,0.014
			c-1.599,0-2.858-0.458-3.746-1.361c-0.937-0.953-1.374-2.285-1.341-4.071c0.023-1.902,0.009-3.812-0.006-5.72
			c-0.023-2.945-0.047-5.991,0.078-9.014c0.242-5.772,3.889-9.88,9.756-10.988c1.697-0.32,3.375-0.349,5.238-0.353
			c4.18-0.007,8.362-0.009,12.545-0.009l10.037,0.001c7.144,0,14.278-0.005,21.4-0.034c1.641-0.001,3.729-0.082,5.394-0.704
			c4.165-1.567,6.925-6.313,6.146-10.577c-0.9-4.893-4.929-8.202-10.024-8.233C310.284,180.826,301.273,180.797,292.631,180.797z"/>
		<path d="M305.128,133.097c0.287,0,0.572,0.001,0.858,0.003c0.214-0.001,0.433-0.002,0.65-0.002
			c59.813,0,108.571,49.199,108.468,109.03c-0.166,58.647-47.15,106.835-105.278,108.547c-1.138,0.033-2.281,0.051-3.406,0.051
			c-61.792,0-107.213-49.043-109.236-104.119C194.774,181.31,247.152,133.1,305.128,133.097 M313.601,253.855h0.007
			 M305.105,125.003h-0.015c-31.108,0.001-61.543,13.07-83.501,35.855c-22.158,22.993-33.701,53.561-32.5,86.072
			c0.537,14.631,3.875,28.922,9.924,42.475c5.961,13.356,14.262,25.359,24.674,35.67c21.974,21.761,51.359,33.744,82.745,33.744
			c1.207,0,2.437-0.02,3.646-0.053c30.251-0.892,58.637-13.451,79.931-35.371c21.319-21.945,33.109-50.802,33.196-81.248
			c0.055-31.221-12.132-60.648-34.313-82.871c-22.063-22.102-51.27-34.273-82.236-34.273l-0.659,0.002
			C305.695,125.004,305.404,125.003,305.105,125.003L305.105,125.003z M272.734,301.191c-8.625,0-16.56-3.23-22.344-9.096
			c-5.555-5.634-8.552-13.203-8.439-21.313c0.133-9.577,0.105-19.292,0.082-28.687c-0.028-10.39-0.057-21.132,0.13-31.682
			c0.257-14.829,13.198-27.444,28.26-27.548c7.077-0.046,14.55-0.07,22.209-0.07c8.636,0,17.643,0.029,27.533,0.088
			c4.169,0.025,7.337,2.615,8.07,6.598c0.602,3.296-1.638,7.119-4.889,8.342c-1.372,0.513-3.328,0.573-4.68,0.574
			c-7.268,0.03-14.574,0.034-21.39,0.034h-5.035h-5.04c-4.177,0-8.354,0.001-12.528,0.009c-1.891,0.003-3.742,0.036-5.605,0.387
			c-6.846,1.293-11.101,6.104-11.383,12.87c-0.127,3.073-0.104,6.144-0.08,9.113c0.016,1.871,0.031,3.804,0.006,5.69
			c-0.043,2.295,0.602,4.147,1.914,5.485c1.277,1.3,3.018,1.96,5.174,1.96c0.185,0,0.376-0.005,0.572-0.015l0.028-0.002l0.029-0.002
			c0.295-0.02,0.628-0.029,1.021-0.029c0.422,0,0.844,0.011,1.27,0.021c0.486,0.011,0.975,0.022,1.463,0.022l19.792,0.002
			l25.742,0.002c15.193,0,30.397-0.004,45.616-0.021c3.749,0,5.967,0.716,7.685,2.472c2.033,2.111,2.776,5.03,1.967,7.785
			c-0.775,2.643-2.789,4.528-5.52,5.174c-2.271,0.521-4.859,0.523-7.603,0.526l-1.146,0.002c-5.754,0.015-11.518,0.019-17.278,0.019
			c-4.123,0-8.245-0.002-12.367-0.004c-2.791-0.002-5.581-0.004-8.371-0.004v-0.041h-3.994H313.6l-13.391,0.002h-13.375
			c-6.688,0-13.379,0-20.074-0.004h-0.337c-2.862,0-5.333,0-7.146,1.977c-1.654,1.803-1.657,3.938-1.662,7.17
			c-0.006,1.201,0.015,2.418,0.033,3.596c0.039,2.37,0.076,4.608-0.076,6.809c-0.319,4.308,0.986,8.285,3.676,11.183
			c2.768,2.979,6.854,4.622,11.504,4.622l0.254-0.002c7.811-0.085,16.219-0.124,26.452-0.124c6.64,0,13.281,0.017,19.917,0.032
			c6.455,0.016,12.907,0.031,19.352,0.033h0.12c2.323,0,4.643-0.01,6.953-0.019c2.295-0.009,4.585-0.017,6.873-0.017
			c3.336,0,6.083,0.018,8.647,0.058c2.583,0.046,7.136,0.826,8.486,5.538c0.714,2.393,0.408,4.742-0.848,6.659
			c-1.328,2.026-3.532,3.321-6.206,3.647l-0.039,0.004l-0.039,0.006c-0.604,0.086-1.309,0.097-1.854,0.097
			c-0.319,0-0.642-0.004-0.958-0.008c-0.351-0.005-0.695-0.009-1.038-0.009H357.9c-8.385,0-16.767-0.021-25.147-0.039
			c-8.389-0.021-16.777-0.041-25.168-0.041c-13.405,0-24.405,0.053-34.612,0.164L272.734,301.191L272.734,301.191z"/>
	</g>
</g>
</svg>
